<?xml version="1.0" encoding="iso-8859-1"?>
<!-- Generator: Adobe Illustrator 19.2.1, SVG Export Plug-In . SVG Version: 6.00 Build 0)  -->
<svg version="1.1" id="Layer_1" xmlns="http://www.w3.org/2000/svg" xmlns:xlink="http://www.w3.org/1999/xlink" x="0px" y="0px"
	 viewBox="0 0 240 240" style="enable-background:new 0 0 240 240;" xml:space="preserve">
<rect style="fill-rule:evenodd;clip-rule:evenodd;fill:none;" width="240" height="240"/>
<g>
	
		<rect x="63.667" y="208.363" style="fill:#D6D6D6;stroke:#3A3A3A;stroke-width:8;stroke-linecap:round;stroke-miterlimit:10;" width="32.667" height="15.637"/>
	
		<rect x="16" y="141.785" style="fill:#D6D6D6;stroke:#3A3A3A;stroke-width:8;stroke-linecap:round;stroke-miterlimit:10;" width="15.637" height="32.667"/>
	
		<rect x="16" y="61.785" style="fill:#D6D6D6;stroke:#3A3A3A;stroke-width:8;stroke-linecap:round;stroke-miterlimit:10;" width="15.637" height="32.667"/>
	
		<rect x="16" y="101.785" style="fill:#D6D6D6;stroke:#3A3A3A;stroke-width:8;stroke-linecap:round;stroke-miterlimit:10;" width="15.637" height="32.667"/>
	<polygon style="fill:#D6D6D6;stroke:#3A3A3A;stroke-width:8;stroke-linecap:round;stroke-miterlimit:10;" points="183.667,31.637 
		208.363,31.637 208.363,54.452 224,54.452 224,16 183.667,16 	"/>
	
		<rect x="143.667" y="16" style="fill:#D6D6D6;stroke:#3A3A3A;stroke-width:8;stroke-linecap:round;stroke-miterlimit:10;" width="32.667" height="15.637"/>
	
		<rect x="103.667" y="16" style="fill:#D6D6D6;stroke:#3A3A3A;stroke-width:8;stroke-linecap:round;stroke-miterlimit:10;" width="32.667" height="15.637"/>
	
		<rect x="63.667" y="16" style="fill:#D6D6D6;stroke:#3A3A3A;stroke-width:8;stroke-linecap:round;stroke-miterlimit:10;" width="32.667" height="15.637"/>
	
		<rect x="143.667" y="208.363" style="fill:#D6D6D6;stroke:#3A3A3A;stroke-width:8;stroke-linecap:round;stroke-miterlimit:10;" width="32.667" height="15.637"/>
	<polygon style="fill:#D6D6D6;stroke:#3A3A3A;stroke-width:8;stroke-linecap:round;stroke-miterlimit:10;" points="56.333,208.363 
		31.637,208.363 31.637,181.785 16,181.785 16,224 16,224 56.333,224 	"/>
	<polygon style="fill:#D6D6D6;stroke:#3A3A3A;stroke-width:8;stroke-linecap:round;stroke-miterlimit:10;" points="31.637,54.452 
		31.637,31.637 56.333,31.637 56.333,16 16,16 16,54.452 	"/>
	<polygon style="fill:#D6D6D6;stroke:#3A3A3A;stroke-width:8;stroke-linecap:round;stroke-miterlimit:10;" points="208.363,181.785 
		208.363,208.363 183.667,208.363 183.667,224 224,224 224,181.785 	"/>
	
		<rect x="208.363" y="141.785" style="fill:#D6D6D6;stroke:#3A3A3A;stroke-width:8;stroke-linecap:round;stroke-miterlimit:10;" width="15.637" height="32.667"/>
	
		<rect x="103.667" y="208.363" style="fill:#D6D6D6;stroke:#3A3A3A;stroke-width:8;stroke-linecap:round;stroke-miterlimit:10;" width="32.667" height="15.637"/>
	
		<rect x="208.363" y="101.785" style="fill:#D6D6D6;stroke:#3A3A3A;stroke-width:8;stroke-linecap:round;stroke-miterlimit:10;" width="15.637" height="32.667"/>
	
		<rect x="208.363" y="61.785" style="fill:#D6D6D6;stroke:#3A3A3A;stroke-width:8;stroke-linecap:round;stroke-miterlimit:10;" width="15.637" height="32.667"/>
</g>
<polygon style="fill:#D6D6D6;stroke:#3A3A3A;stroke-width:8;stroke-linecap:round;stroke-miterlimit:10;" points="182.049,106.021 
	133.979,106.021 133.979,57.951 106.021,57.951 106.021,106.021 57.951,106.021 57.951,133.979 106.021,133.979 106.021,182.049 
	133.979,182.049 133.979,133.979 182.049,133.979 "/>
</svg>
